<?xml version="1.0" encoding="utf-8"?>
<!-- Generator: Adobe Illustrator 23.0.2, SVG Export Plug-In . SVG Version: 6.00 Build 0)  -->
<svg version="1.1" id="Слой_1" xmlns="http://www.w3.org/2000/svg" xmlns:xlink="http://www.w3.org/1999/xlink" x="0px" y="0px"
	 viewBox="0 0 75 70" style="enable-background:new 0 0 75 70;" xml:space="preserve">
<style type="text/css">
	.st0{fill:#DB2091;}
	.st1{fill:#009FDC;}
	.st2{fill:#FF932B;}
	.st3{display:none;}
	.st4{display:inline;}

	#id1{

	}
	#id2{

	}
	#id3{

	}
	#id4{

	}
	#id5{

	}
	#id6{

	}
	@keyframes animationOne{
		0%{
			opacity:0;
			fill:#fff;
		}
	}
</style>
<g>
	<g>
		<path id="id1" class="st0" d="M36.3,40.5v22.2l-8.1,4.8v-27c0-2.6-1.4-5.1-3.7-6.4L1,20.1l7.9-4.7l19.8,11.8C33.4,30,36.3,35.1,36.3,40.5z"
			/>
		<circle id="id2" class="st0" cx="18" cy="41.7" r="5.5"/>
	</g>
	<g>
		<path id="id3" class="st1" d="M74,20.1l-23.6,14c-2.3,1.3-3.7,3.8-3.7,6.4v27l-8.1-4.8V40.5c0-5.5,2.9-10.6,7.6-13.4l19.8-11.8L74,20.1z"/>
		<circle id="id4" class="st1" cx="57" cy="41.7" r="5.5"/>
	</g>
	<g>
		<path id="id5" class="st2" d="M65,3.9v9.4L45.4,24.9c-2.4,1.5-5.2,2.2-7.9,2.2c-2.7,0-5.5-0.7-7.9-2.2L10,13.3V3.9L33.7,18
			c2.3,1.4,5.3,1.4,7.6,0L65,3.9z"/>
		<path id="id6" class="st2" d="M43,8c0,3.1-2.5,5.5-5.5,5.5c-3.1,0-5.5-2.5-5.5-5.5c0-3.1,2.5-5.5,5.5-5.5C40.6,2.5,43,5,43,8z"/>
	</g>
</g>
<g class="st3">
	<g class="st4">
		<g>
			<path class="st0" d="M-65.6,243.7v30.2l-11,6.5v-36.7c0-3.6-1.9-6.9-5-8.7l-32.2-19.1l10.8-6.4l27,16
				C-69.6,229.3-65.6,236.3-65.6,243.7z"/>
			<circle class="st0" cx="-90.5" cy="245.3" r="7.5"/>
		</g>
		<g>
			<path class="st1" d="M-14.2,215.9L-46.3,235c-3.1,1.8-5,5.2-5,8.7v36.7l-11-6.5v-30.2c0-7.4,4-14.4,10.4-18.2l27-16L-14.2,215.9z
				"/>
			<circle class="st1" cx="-37.5" cy="245.3" r="7.5"/>
		</g>
		<g>
			<path class="st2" d="M-26.5,193.8v12.8l-26.7,15.8c-3.3,2-7.1,3-10.8,3c-3.7,0-7.5-1-10.8-3l-26.7-15.8v-12.8l32.3,19.2
				c3.2,1.9,7.2,1.9,10.4,0L-26.5,193.8z"/>
			<path class="st2" d="M-56.4,199.4c0,4.2-3.4,7.5-7.5,7.5c-4.2,0-7.5-3.4-7.5-7.5c0-4.2,3.4-7.5,7.5-7.5
				C-59.8,191.9-56.4,195.2-56.4,199.4z"/>
		</g>
	</g>
	<g class="st4">
		<g>
			<path d="M4.7,204v17.7c0,5.9,2.6,8.7,6.6,8.7c4.2,0,6.7-2.7,6.7-8.7V204h5.9v17.4c0,9.4-5.1,13.5-12.8,13.5
				c-7.4,0-12.2-3.9-12.2-13.5V204H4.7z"/>
			<path d="M40.7,220.5v3.8H28.6v-3.8H40.7z"/>
			<path d="M45.4,228.4c1.9,1,4.8,1.9,7.7,1.9c3.7,0,5.8-1.7,5.8-4.2c0-2.3-1.6-3.6-5.7-5c-5.3-1.8-8.7-4.5-8.7-8.8
				c0-5,4.4-8.7,11.3-8.7c3.5,0,6,0.7,7.7,1.5l-1.4,4.5c-1.2-0.6-3.4-1.4-6.4-1.4c-3.7,0-5.3,1.9-5.3,3.7c0,2.3,1.9,3.4,6.1,5
				c5.6,2,8.2,4.7,8.2,9c0,4.9-3.9,9.1-12.1,9.1c-3.4,0-6.9-0.9-8.7-1.9L45.4,228.4z"/>
			<path d="M74.1,225c0.2,4,3.4,5.7,7.1,5.7c2.7,0,4.6-0.4,6.4-1l0.9,3.8c-2,0.8-4.7,1.4-8.1,1.4c-7.5,0-11.9-4.4-11.9-11.1
				c0-6.1,3.9-11.8,11.3-11.8c7.5,0,10,5.9,10,10.7c0,1-0.1,1.9-0.2,2.3H74.1z M84.3,221.1c0-2-0.9-5.4-4.8-5.4
				c-3.6,0-5.1,3.1-5.4,5.4H84.3z"/>
			<path d="M94.5,219.5c0-2.9-0.1-5.1-0.2-7.1h5.1l0.2,4.2h0.2c1.1-3.1,3.8-4.7,6.3-4.7c0.6,0,0.9,0,1.4,0.1v5.2
				c-0.5-0.1-1-0.2-1.7-0.2c-2.8,0-4.7,1.7-5.2,4.2c-0.1,0.5-0.2,1.1-0.2,1.7v11.4h-5.9V219.5z"/>
		</g>
	</g>
	<g class="st4">
		<g>
			<path d="M-1.7,247.4v8.7c0,3.7,1.7,5.1,3.9,5.1c2.4,0,4-1.5,4-5.1v-8.7h1v8.6c0,4.4-2.4,6.1-5.1,6.1c-2.5,0-4.8-1.5-4.8-5.9v-8.8
				H-1.7z"/>
			<path d="M11,254c0-0.9,0-1.7-0.1-2.5h1l0.1,1.9h0c0.6-1.2,1.9-2.1,3.5-2.1c1,0,3.6,0.5,3.6,4.4v6.2h-1v-6.1
				c0-1.9-0.7-3.6-2.9-3.6c-1.4,0-2.7,1-3.1,2.4c-0.1,0.2-0.1,0.6-0.1,0.9v6.4h-1V254z"/>
			<path d="M24.2,248.6c0,0.5-0.3,0.9-0.9,0.9c-0.5,0-0.8-0.4-0.8-0.9c0-0.5,0.4-0.9,0.8-0.9C23.8,247.7,24.2,248.1,24.2,248.6z
				 M22.8,261.9v-10.3h1v10.3H22.8z"/>
			<path d="M27.3,251.6l2.4,6.4c0.4,1,0.7,1.9,1,2.8h0c0.3-0.9,0.7-1.8,1-2.8l2.5-6.4h1.1l-4.2,10.3h-0.9l-4-10.3H27.3z"/>
			<path d="M37.8,256.6c0,3.3,1.8,4.6,3.9,4.6c1.5,0,2.3-0.3,2.9-0.6l0.3,0.8c-0.4,0.2-1.5,0.7-3.3,0.7c-3,0-4.8-2.2-4.8-5.2
				c0-3.4,2-5.6,4.6-5.6c3.4,0,4,3.2,4,4.7c0,0.3,0,0.5,0,0.6H37.8z M44.4,255.8c0-1.4-0.6-3.6-3.1-3.6c-2.3,0-3.2,2-3.4,3.6H44.4z"
				/>
			<path d="M48.4,254.6c0-1,0-2.1-0.1-3.1h0.9l0,2.1h0.1c0.5-1.3,1.5-2.3,2.9-2.3c0.1,0,0.3,0,0.4,0v1c-0.2,0-0.3,0-0.5,0
				c-1.4,0-2.4,1.2-2.7,2.9c-0.1,0.3-0.1,0.6-0.1,1v5.7h-1V254.6z"/>
			<path d="M54.6,260.5c0.6,0.3,1.4,0.7,2.3,0.7c1.6,0,2.4-0.9,2.4-2c0-1.1-0.7-1.7-2.2-2.3c-1.7-0.7-2.6-1.6-2.6-2.8
				c0-1.5,1.2-2.8,3.2-2.8c1,0,1.8,0.3,2.3,0.7l-0.4,0.8c-0.4-0.3-1-0.6-2-0.6c-1.3,0-2,0.8-2,1.8c0,1.1,0.7,1.5,2.1,2.1
				c1.7,0.7,2.7,1.5,2.7,3c0,1.8-1.4,3-3.5,3c-1,0-1.9-0.3-2.6-0.7L54.6,260.5z"/>
			<path d="M69,261.9l-0.2-1.5h0c-0.5,0.8-1.6,1.7-3.3,1.7c-2.1,0-3-1.5-3-2.8c0-2.4,2.1-3.8,6.3-3.8v-0.3c0-1-0.2-3.1-2.6-3
				c-0.9,0-1.8,0.2-2.6,0.8l-0.3-0.7c0.9-0.6,2.1-0.9,3-0.9c3,0,3.5,2.2,3.5,4.1v4c0,0.8,0,1.7,0.1,2.4H69z M68.8,256.3
				c-2.2-0.1-5.2,0.3-5.2,2.7c0,1.5,1,2.1,2.1,2.1c1.7,0,2.7-1.1,3-2.1c0.1-0.2,0.1-0.4,0.1-0.6V256.3z"/>
			<path d="M73.4,246.6h1v15.2h-1V246.6z"/>
			<path d="M82.9,260.3c0.8,0.6,1.9,1,3.2,1c2.2,0,3.5-1.2,3.5-3c0-1.6-0.8-2.6-2.9-3.4c-2.3-0.8-3.7-2-3.7-4c0-2.1,1.8-3.7,4.2-3.7
				c1.4,0,2.4,0.3,2.9,0.7l-0.4,0.9c-0.4-0.3-1.3-0.7-2.6-0.7c-2.3,0-3.1,1.5-3.1,2.6c0,1.6,0.9,2.4,3,3.2c2.4,1,3.7,2.1,3.7,4.2
				c0,2.1-1.5,4-4.6,4c-1.3,0-2.7-0.4-3.5-1L82.9,260.3z"/>
			<path d="M93.8,256.6c0,3.3,1.8,4.6,3.9,4.6c1.5,0,2.3-0.3,2.9-0.6l0.3,0.8c-0.4,0.2-1.5,0.7-3.3,0.7c-3,0-4.8-2.2-4.8-5.2
				c0-3.4,2-5.6,4.6-5.6c3.4,0,4,3.2,4,4.7c0,0.3,0,0.5,0,0.6H93.8z M100.3,255.8c0-1.4-0.6-3.6-3.1-3.6c-2.3,0-3.2,2-3.4,3.6H100.3
				z"/>
			<path d="M104.3,254.6c0-1,0-2.1-0.1-3.1h0.9l0,2.1h0.1c0.5-1.3,1.5-2.3,2.9-2.3c0.1,0,0.3,0,0.4,0v1c-0.2,0-0.3,0-0.5,0
				c-1.4,0-2.4,1.2-2.7,2.9c-0.1,0.3-0.1,0.6-0.1,1v5.7h-1V254.6z"/>
			<path d="M110.7,251.6l2.4,6.4c0.4,1,0.7,1.9,1,2.8h0c0.3-0.9,0.7-1.8,1-2.8l2.5-6.4h1.1l-4.2,10.3h-0.9l-4-10.3H110.7z"/>
			<path d="M122.4,248.6c0,0.5-0.3,0.9-0.9,0.9c-0.5,0-0.8-0.4-0.8-0.9c0-0.5,0.4-0.9,0.8-0.9C122,247.7,122.4,248.1,122.4,248.6z
				 M121,261.9v-10.3h1v10.3H121z"/>
			<path d="M132.9,261.4c-0.4,0.2-1.5,0.7-3,0.7c-3,0-4.9-2.2-4.9-5.3c0-3.3,2.2-5.5,5.3-5.5c1.3,0,2.3,0.4,2.7,0.6l-0.4,0.8
				c-0.5-0.3-1.3-0.6-2.4-0.6c-2.8,0-4.2,2.1-4.2,4.5c0,2.7,1.7,4.5,4.1,4.5c1.2,0,2-0.3,2.6-0.6L132.9,261.4z"/>
			<path d="M135.9,256.6c0,3.3,1.8,4.6,3.9,4.6c1.5,0,2.3-0.3,2.9-0.6l0.3,0.8c-0.4,0.2-1.5,0.7-3.3,0.7c-3,0-4.8-2.2-4.8-5.2
				c0-3.4,2-5.6,4.6-5.6c3.4,0,4,3.2,4,4.7c0,0.3,0,0.5,0,0.6H135.9z M142.5,255.8c0-1.4-0.6-3.6-3.1-3.6c-2.3,0-3.2,2-3.4,3.6
				H142.5z"/>
			<path d="M146,260.5c0.6,0.3,1.4,0.7,2.3,0.7c1.6,0,2.4-0.9,2.4-2c0-1.1-0.7-1.7-2.2-2.3c-1.7-0.7-2.6-1.6-2.6-2.8
				c0-1.5,1.2-2.8,3.2-2.8c1,0,1.8,0.3,2.3,0.7l-0.4,0.8c-0.4-0.3-1-0.6-2-0.6c-1.3,0-2,0.8-2,1.8c0,1.1,0.7,1.5,2.1,2.1
				c1.7,0.7,2.7,1.5,2.7,3c0,1.8-1.4,3-3.5,3c-1,0-1.9-0.3-2.6-0.7L146,260.5z"/>
		</g>
	</g>
</g>
</svg>
 