<?xml version="1.0" encoding="utf-8"?>
<!-- Generator: Adobe Illustrator 23.0.2, SVG Export Plug-In . SVG Version: 6.00 Build 0)  -->
<svg version="1.1" id="Слой_1" xmlns="http://www.w3.org/2000/svg" xmlns:xlink="http://www.w3.org/1999/xlink" x="0px" y="0px"
	 viewBox="0 0 200 70" style="enable-background:new 0 0 200 70;" xml:space="preserve">
<style type="text/css">
	.st0{fill:#DB2091;}
	.st1{fill:#009FDC;}
	.st2{fill:#FF932B;}
	.st3{display:none;}
	.st4{display:inline;}
</style>
<g>
	<g>
		<g>
			<path class="st0" d="M37.7,40.5v22.2l-8.1,4.8v-27c0-2.6-1.4-5.1-3.7-6.4l-23.6-14l7.9-4.7l19.8,11.8
				C34.8,30,37.7,35.1,37.7,40.5z"/>
			<circle class="st0" cx="19.4" cy="41.7" r="5.5"/>
		</g>
		<g>
			<path class="st1" d="M75.5,20.1l-23.6,14c-2.3,1.3-3.7,3.8-3.7,6.4v27l-8.1-4.8V40.5c0-5.5,2.9-10.6,7.6-13.4l19.8-11.8
				L75.5,20.1z"/>
			<circle class="st1" cx="58.4" cy="41.7" r="5.5"/>
		</g>
		<g>
			<path class="st2" d="M66.4,3.9v9.4L46.8,24.9c-2.4,1.5-5.2,2.2-7.9,2.2c-2.7,0-5.5-0.7-7.9-2.2L11.4,13.3V3.9L35.1,18
				c2.3,1.4,5.3,1.4,7.6,0L66.4,3.9z"/>
			<path class="st2" d="M44.4,8c0,3.1-2.5,5.5-5.5,5.5c-3.1,0-5.5-2.5-5.5-5.5c0-3.1,2.5-5.5,5.5-5.5C42,2.5,44.4,5,44.4,8z"/>
		</g>
	</g>
	<g>
		<path d="M89.3,11.4v13c0,4.4,1.9,6.4,4.8,6.4c3.1,0,5-2,5-6.4v-13h4.3v12.7c0,6.9-3.7,9.9-9.4,9.9c-5.4,0-9-2.9-9-9.9V11.4H89.3z"
			/>
		<path d="M115.7,23.5v2.8h-8.9v-2.8H115.7z"/>
		<path d="M119.2,29.3c1.4,0.8,3.5,1.4,5.7,1.4c2.7,0,4.3-1.2,4.3-3c0-1.7-1.2-2.7-4.2-3.7c-3.9-1.3-6.4-3.3-6.4-6.5
			c0-3.7,3.2-6.4,8.3-6.4c2.5,0,4.4,0.5,5.6,1.1l-1,3.3c-0.8-0.4-2.5-1.1-4.7-1.1c-2.7,0-3.9,1.4-3.9,2.7c0,1.7,1.4,2.5,4.5,3.7
			c4.1,1.5,6,3.4,6,6.6c0,3.6-2.8,6.7-8.9,6.7c-2.5,0-5.1-0.7-6.4-1.4L119.2,29.3z"/>
		<path d="M140.4,26.8c0.1,2.9,2.5,4.2,5.2,4.2c2,0,3.4-0.3,4.7-0.7l0.6,2.8c-1.5,0.6-3.5,1-5.9,1c-5.5,0-8.7-3.2-8.7-8.2
			c0-4.4,2.8-8.7,8.3-8.7c5.5,0,7.3,4.3,7.3,7.8c0,0.8-0.1,1.4-0.2,1.7H140.4z M147.9,24c0-1.5-0.7-3.9-3.5-3.9
			c-2.6,0-3.7,2.3-3.9,3.9H147.9z"/>
		<path d="M155.4,22.8c0-2.2,0-3.7-0.1-5.2h3.7l0.2,3.1h0.1c0.8-2.3,2.8-3.4,4.6-3.4c0.4,0,0.7,0,1,0.1v3.8
			c-0.4-0.1-0.7-0.1-1.3-0.1c-2,0-3.5,1.2-3.8,3.1c-0.1,0.4-0.1,0.8-0.1,1.2v8.4h-4.3V22.8z"/>
	</g>
	<g>
		<path d="M84.6,43.2v6.4c0,2.7,1.3,3.7,2.8,3.7c1.7,0,3-1.1,3-3.7v-6.4h0.7v6.3c0,3.3-1.8,4.5-3.8,4.5c-1.9,0-3.5-1.1-3.5-4.3v-6.5
			H84.6z"/>
		<path d="M93.9,48.1c0-0.7,0-1.2-0.1-1.8h0.7l0.1,1.4h0c0.4-0.9,1.4-1.5,2.6-1.5c0.7,0,2.6,0.4,2.6,3.2v4.5h-0.7v-4.5
			c0-1.4-0.5-2.6-2.1-2.6c-1.1,0-2,0.8-2.3,1.7c-0.1,0.2-0.1,0.4-0.1,0.7v4.7h-0.7V48.1z"/>
		<path d="M103.6,44.1c0,0.4-0.2,0.7-0.6,0.7c-0.3,0-0.6-0.3-0.6-0.7c0-0.3,0.3-0.7,0.6-0.7C103.4,43.5,103.6,43.8,103.6,44.1z
			 M102.6,53.9v-7.6h0.7v7.6H102.6z"/>
		<path d="M105.9,46.3l1.8,4.7c0.3,0.7,0.5,1.4,0.7,2h0c0.2-0.6,0.5-1.3,0.8-2l1.8-4.7h0.8l-3.1,7.6h-0.7l-3-7.6H105.9z"/>
		<path d="M113.5,50c0,2.4,1.3,3.4,2.9,3.4c1.1,0,1.7-0.2,2.1-0.4l0.2,0.6c-0.3,0.2-1.1,0.5-2.4,0.5c-2.2,0-3.5-1.6-3.5-3.8
			c0-2.5,1.4-4.1,3.4-4.1c2.5,0,2.9,2.3,2.9,3.4c0,0.2,0,0.3,0,0.5H113.5z M118.3,49.4c0-1.1-0.4-2.7-2.3-2.7
			c-1.7,0-2.4,1.5-2.5,2.7H118.3z"/>
		<path d="M121.3,48.6c0-0.8,0-1.5-0.1-2.3h0.7l0,1.5h0c0.3-1,1.1-1.7,2.1-1.7c0.1,0,0.2,0,0.3,0v0.7c-0.1,0-0.2,0-0.4,0
			c-1,0-1.8,0.9-2,2.1c0,0.2-0.1,0.5-0.1,0.7v4.2h-0.7V48.6z"/>
		<path d="M125.8,52.9c0.4,0.3,1,0.5,1.7,0.5c1.2,0,1.8-0.7,1.8-1.4c0-0.8-0.5-1.3-1.6-1.7c-1.2-0.5-1.9-1.2-1.9-2.1
			c0-1.1,0.9-2,2.3-2c0.7,0,1.3,0.2,1.7,0.5l-0.3,0.6c-0.3-0.2-0.7-0.5-1.5-0.5c-1,0-1.5,0.6-1.5,1.3c0,0.8,0.5,1.1,1.6,1.6
			c1.2,0.5,1.9,1.1,1.9,2.2c0,1.3-1,2.2-2.6,2.2c-0.7,0-1.4-0.2-1.9-0.5L125.8,52.9z"/>
		<path d="M136.4,53.9l-0.1-1.1h0c-0.4,0.6-1.2,1.3-2.4,1.3c-1.5,0-2.2-1.1-2.2-2.1c0-1.7,1.5-2.8,4.6-2.8V49c0-0.7-0.1-2.2-1.9-2.2
			c-0.7,0-1.4,0.2-1.9,0.6l-0.2-0.5c0.7-0.5,1.5-0.7,2.2-0.7c2.2,0,2.6,1.6,2.6,3v3c0,0.6,0,1.2,0.1,1.8H136.4z M136.2,49.8
			c-1.6,0-3.8,0.2-3.8,2c0,1.1,0.7,1.6,1.5,1.6c1.3,0,2-0.8,2.2-1.5c0.1-0.2,0.1-0.3,0.1-0.5V49.8z"/>
		<path d="M139.6,42.7h0.7v11.2h-0.7V42.7z"/>
		<path d="M146.6,52.7c0.6,0.4,1.4,0.7,2.3,0.7c1.6,0,2.6-0.9,2.6-2.2c0-1.2-0.6-1.9-2.2-2.5c-1.7-0.6-2.7-1.5-2.7-2.9
			c0-1.6,1.3-2.7,3.1-2.7c1,0,1.8,0.3,2.1,0.5l-0.3,0.6c-0.3-0.2-1-0.5-1.9-0.5c-1.7,0-2.3,1.1-2.3,1.9c0,1.2,0.7,1.8,2.2,2.4
			c1.8,0.7,2.7,1.5,2.7,3.1c0,1.5-1.1,2.9-3.4,2.9c-0.9,0-2-0.3-2.5-0.7L146.6,52.7z"/>
		<path d="M154.6,50c0,2.4,1.3,3.4,2.9,3.4c1.1,0,1.7-0.2,2.1-0.4l0.2,0.6c-0.3,0.2-1.1,0.5-2.4,0.5c-2.2,0-3.5-1.6-3.5-3.8
			c0-2.5,1.4-4.1,3.4-4.1c2.5,0,2.9,2.3,2.9,3.4c0,0.2,0,0.3,0,0.5H154.6z M159.5,49.4c0-1.1-0.4-2.7-2.3-2.7
			c-1.7,0-2.4,1.5-2.5,2.7H159.5z"/>
		<path d="M162.4,48.6c0-0.8,0-1.5-0.1-2.3h0.7l0,1.5h0c0.3-1,1.1-1.7,2.1-1.7c0.1,0,0.2,0,0.3,0v0.7c-0.1,0-0.2,0-0.4,0
			c-1,0-1.8,0.9-2,2.1c0,0.2-0.1,0.5-0.1,0.7v4.2h-0.7V48.6z"/>
		<path d="M167.5,46.3l1.8,4.7c0.3,0.7,0.5,1.4,0.7,2h0c0.2-0.6,0.5-1.3,0.8-2l1.8-4.7h0.8l-3.1,7.6h-0.7l-3-7.6H167.5z"/>
		<path d="M176.1,44.1c0,0.4-0.2,0.7-0.6,0.7c-0.3,0-0.6-0.3-0.6-0.7c0-0.3,0.3-0.7,0.6-0.7C175.9,43.5,176.1,43.8,176.1,44.1z
			 M175.1,53.9v-7.6h0.7v7.6H175.1z"/>
		<path d="M183.9,53.5c-0.3,0.2-1.1,0.5-2.2,0.5c-2.2,0-3.6-1.6-3.6-3.9c0-2.4,1.6-4,3.9-4c0.9,0,1.7,0.3,2,0.5l-0.3,0.6
			c-0.4-0.2-0.9-0.4-1.8-0.4c-2,0-3.1,1.6-3.1,3.3c0,2,1.2,3.3,3,3.3c0.9,0,1.5-0.3,1.9-0.4L183.9,53.5z"/>
		<path d="M186,50c0,2.4,1.3,3.4,2.9,3.4c1.1,0,1.7-0.2,2.1-0.4l0.2,0.6c-0.3,0.2-1.1,0.5-2.4,0.5c-2.2,0-3.5-1.6-3.5-3.8
			c0-2.5,1.4-4.1,3.4-4.1c2.5,0,2.9,2.3,2.9,3.4c0,0.2,0,0.3,0,0.5H186z M190.8,49.4c0-1.1-0.4-2.7-2.3-2.7c-1.7,0-2.4,1.5-2.5,2.7
			H190.8z"/>
		<path d="M193.4,52.9c0.4,0.3,1,0.5,1.7,0.5c1.2,0,1.8-0.7,1.8-1.4c0-0.8-0.5-1.3-1.6-1.7c-1.2-0.5-1.9-1.2-1.9-2.1
			c0-1.1,0.9-2,2.3-2c0.7,0,1.3,0.2,1.7,0.5l-0.3,0.6c-0.3-0.2-0.7-0.5-1.5-0.5c-1,0-1.5,0.6-1.5,1.3c0,0.8,0.5,1.1,1.6,1.6
			c1.2,0.5,1.9,1.1,1.9,2.2c0,1.3-1,2.2-2.6,2.2c-0.7,0-1.4-0.2-1.9-0.5L193.4,52.9z"/>
	</g>
</g>
<g class="st3">
	<g class="st4">
		<g>
			<path class="st0" d="M-3.1,243.7v30.2l-11,6.5v-36.7c0-3.6-1.9-6.9-5-8.7l-32.2-19.1l10.8-6.4l27,16
				C-7.1,229.3-3.1,236.3-3.1,243.7z"/>
			<circle class="st0" cx="-28" cy="245.3" r="7.5"/>
		</g>
		<g>
			<path class="st1" d="M48.3,215.9L16.2,235c-3.1,1.8-5,5.2-5,8.7v36.7l-11-6.5v-30.2c0-7.4,4-14.4,10.4-18.2l27-16L48.3,215.9z"/>
			<circle class="st1" cx="25" cy="245.3" r="7.5"/>
		</g>
		<g>
			<path class="st2" d="M36,193.8v12.8L9.3,222.4c-3.3,2-7.1,3-10.8,3c-3.7,0-7.5-1-10.8-3L-39,206.6v-12.8L-6.7,213
				c3.2,1.9,7.2,1.9,10.4,0L36,193.8z"/>
			<path class="st2" d="M6.1,199.4c0,4.2-3.4,7.5-7.5,7.5c-4.2,0-7.5-3.4-7.5-7.5c0-4.2,3.4-7.5,7.5-7.5
				C2.7,191.9,6.1,195.2,6.1,199.4z"/>
		</g>
	</g>
	<g class="st4">
		<g>
			<path d="M67.2,204v17.7c0,5.9,2.6,8.7,6.6,8.7c4.2,0,6.7-2.7,6.7-8.7V204h5.9v17.4c0,9.4-5.1,13.5-12.8,13.5
				c-7.4,0-12.2-3.9-12.2-13.5V204H67.2z"/>
			<path d="M103.2,220.5v3.8H91.1v-3.8H103.2z"/>
			<path d="M107.9,228.4c1.9,1,4.8,1.9,7.7,1.9c3.7,0,5.8-1.7,5.8-4.2c0-2.3-1.6-3.6-5.7-5c-5.3-1.8-8.7-4.5-8.7-8.8
				c0-5,4.4-8.7,11.3-8.7c3.5,0,6,0.7,7.7,1.5l-1.4,4.5c-1.2-0.6-3.4-1.4-6.4-1.4c-3.7,0-5.3,1.9-5.3,3.7c0,2.3,1.9,3.4,6.1,5
				c5.6,2,8.2,4.7,8.2,9c0,4.9-3.9,9.1-12.1,9.1c-3.4,0-6.9-0.9-8.7-1.9L107.9,228.4z"/>
			<path d="M136.6,225c0.2,4,3.4,5.7,7.1,5.7c2.7,0,4.6-0.4,6.4-1l0.9,3.8c-2,0.8-4.7,1.4-8.1,1.4c-7.5,0-11.9-4.4-11.9-11.1
				c0-6.1,3.9-11.8,11.3-11.8c7.5,0,10,5.9,10,10.7c0,1-0.1,1.9-0.2,2.3H136.6z M146.8,221.1c0-2-0.9-5.4-4.8-5.4
				c-3.6,0-5.1,3.1-5.4,5.4H146.8z"/>
			<path d="M157,219.5c0-2.9-0.1-5.1-0.2-7.1h5.1l0.2,4.2h0.2c1.1-3.1,3.8-4.7,6.3-4.7c0.6,0,0.9,0,1.4,0.1v5.2
				c-0.5-0.1-1-0.2-1.7-0.2c-2.8,0-4.7,1.7-5.2,4.2c-0.1,0.5-0.2,1.1-0.2,1.7v11.4H157V219.5z"/>
		</g>
	</g>
	<g class="st4">
		<g>
			<path d="M60.8,247.4v8.7c0,3.7,1.7,5.1,3.9,5.1c2.4,0,4-1.5,4-5.1v-8.7h1v8.6c0,4.4-2.4,6.1-5.1,6.1c-2.5,0-4.8-1.5-4.8-5.9v-8.8
				H60.8z"/>
			<path d="M73.5,254c0-0.9,0-1.7-0.1-2.5h1l0.1,1.9h0c0.6-1.2,1.9-2.1,3.5-2.1c1,0,3.6,0.5,3.6,4.4v6.2h-1v-6.1
				c0-1.9-0.7-3.6-2.9-3.6c-1.4,0-2.7,1-3.1,2.4c-0.1,0.2-0.1,0.6-0.1,0.9v6.4h-1V254z"/>
			<path d="M86.7,248.6c0,0.5-0.3,0.9-0.9,0.9c-0.5,0-0.8-0.4-0.8-0.9c0-0.5,0.4-0.9,0.8-0.9C86.3,247.7,86.7,248.1,86.7,248.6z
				 M85.3,261.9v-10.3h1v10.3H85.3z"/>
			<path d="M89.8,251.6l2.4,6.4c0.4,1,0.7,1.9,1,2.8h0c0.3-0.9,0.7-1.8,1-2.8l2.5-6.4h1.1l-4.2,10.3h-0.9l-4-10.3H89.8z"/>
			<path d="M100.3,256.6c0,3.3,1.8,4.6,3.9,4.6c1.5,0,2.3-0.3,2.9-0.6l0.3,0.8c-0.4,0.2-1.5,0.7-3.3,0.7c-3,0-4.8-2.2-4.8-5.2
				c0-3.4,2-5.6,4.6-5.6c3.4,0,4,3.2,4,4.7c0,0.3,0,0.5,0,0.6H100.3z M106.9,255.8c0-1.4-0.6-3.6-3.1-3.6c-2.3,0-3.2,2-3.4,3.6
				H106.9z"/>
			<path d="M110.9,254.6c0-1,0-2.1-0.1-3.1h0.9l0,2.1h0.1c0.5-1.3,1.5-2.3,2.9-2.3c0.1,0,0.3,0,0.4,0v1c-0.2,0-0.3,0-0.5,0
				c-1.4,0-2.4,1.2-2.7,2.9c-0.1,0.3-0.1,0.6-0.1,1v5.7h-1V254.6z"/>
			<path d="M117.1,260.5c0.6,0.3,1.4,0.7,2.3,0.7c1.6,0,2.4-0.9,2.4-2c0-1.1-0.7-1.7-2.2-2.3c-1.7-0.7-2.6-1.6-2.6-2.8
				c0-1.5,1.2-2.8,3.2-2.8c1,0,1.8,0.3,2.3,0.7l-0.4,0.8c-0.4-0.3-1-0.6-2-0.6c-1.3,0-2,0.8-2,1.8c0,1.1,0.7,1.5,2.1,2.1
				c1.7,0.7,2.7,1.5,2.7,3c0,1.8-1.4,3-3.5,3c-1,0-1.9-0.3-2.6-0.7L117.1,260.5z"/>
			<path d="M131.5,261.9l-0.2-1.5h0c-0.5,0.8-1.6,1.7-3.3,1.7c-2.1,0-3-1.5-3-2.8c0-2.4,2.1-3.8,6.3-3.8v-0.3c0-1-0.2-3.1-2.6-3
				c-0.9,0-1.8,0.2-2.6,0.8l-0.3-0.7c0.9-0.6,2.1-0.9,3-0.9c3,0,3.5,2.2,3.5,4.1v4c0,0.8,0,1.7,0.1,2.4H131.5z M131.3,256.3
				c-2.2-0.1-5.2,0.3-5.2,2.7c0,1.5,1,2.1,2.1,2.1c1.7,0,2.7-1.1,3-2.1c0.1-0.2,0.1-0.4,0.1-0.6V256.3z"/>
			<path d="M135.9,246.6h1v15.2h-1V246.6z"/>
			<path d="M145.4,260.3c0.8,0.6,1.9,1,3.2,1c2.2,0,3.5-1.2,3.5-3c0-1.6-0.8-2.6-2.9-3.4c-2.3-0.8-3.7-2-3.7-4
				c0-2.1,1.8-3.7,4.2-3.7c1.4,0,2.4,0.3,2.9,0.7l-0.4,0.9c-0.4-0.3-1.3-0.7-2.6-0.7c-2.3,0-3.1,1.5-3.1,2.6c0,1.6,0.9,2.4,3,3.2
				c2.4,1,3.7,2.1,3.7,4.2c0,2.1-1.5,4-4.6,4c-1.3,0-2.7-0.4-3.5-1L145.4,260.3z"/>
			<path d="M156.3,256.6c0,3.3,1.8,4.6,3.9,4.6c1.5,0,2.3-0.3,2.9-0.6l0.3,0.8c-0.4,0.2-1.5,0.7-3.3,0.7c-3,0-4.8-2.2-4.8-5.2
				c0-3.4,2-5.6,4.6-5.6c3.4,0,4,3.2,4,4.7c0,0.3,0,0.5,0,0.6H156.3z M162.8,255.8c0-1.4-0.6-3.6-3.1-3.6c-2.3,0-3.2,2-3.4,3.6
				H162.8z"/>
			<path d="M166.8,254.6c0-1,0-2.1-0.1-3.1h0.9l0,2.1h0.1c0.5-1.3,1.5-2.3,2.9-2.3c0.1,0,0.3,0,0.4,0v1c-0.2,0-0.3,0-0.5,0
				c-1.4,0-2.4,1.2-2.7,2.9c-0.1,0.3-0.1,0.6-0.1,1v5.7h-1V254.6z"/>
			<path d="M173.2,251.6l2.4,6.4c0.4,1,0.7,1.9,1,2.8h0c0.3-0.9,0.7-1.8,1-2.8l2.5-6.4h1.1l-4.2,10.3h-0.9l-4-10.3H173.2z"/>
			<path d="M184.9,248.6c0,0.5-0.3,0.9-0.9,0.9c-0.5,0-0.8-0.4-0.8-0.9c0-0.5,0.4-0.9,0.8-0.9C184.5,247.7,184.9,248.1,184.9,248.6z
				 M183.5,261.9v-10.3h1v10.3H183.5z"/>
			<path d="M195.4,261.4c-0.4,0.2-1.5,0.7-3,0.7c-3,0-4.9-2.2-4.9-5.3c0-3.3,2.2-5.5,5.3-5.5c1.3,0,2.3,0.4,2.7,0.6l-0.4,0.8
				c-0.5-0.3-1.3-0.6-2.4-0.6c-2.8,0-4.2,2.1-4.2,4.5c0,2.7,1.7,4.5,4.1,4.5c1.2,0,2-0.3,2.6-0.6L195.4,261.4z"/>
			<path d="M198.4,256.6c0,3.3,1.8,4.6,3.9,4.6c1.5,0,2.3-0.3,2.9-0.6l0.3,0.8c-0.4,0.2-1.5,0.7-3.3,0.7c-3,0-4.8-2.2-4.8-5.2
				c0-3.4,2-5.6,4.6-5.6c3.4,0,4,3.2,4,4.7c0,0.3,0,0.5,0,0.6H198.4z M205,255.8c0-1.4-0.6-3.6-3.1-3.6c-2.3,0-3.2,2-3.4,3.6H205z"
				/>
			<path d="M208.5,260.5c0.6,0.3,1.4,0.7,2.3,0.7c1.6,0,2.4-0.9,2.4-2c0-1.1-0.7-1.7-2.2-2.3c-1.7-0.7-2.6-1.6-2.6-2.8
				c0-1.5,1.2-2.8,3.2-2.8c1,0,1.8,0.3,2.3,0.7l-0.4,0.8c-0.4-0.3-1-0.6-2-0.6c-1.3,0-2,0.8-2,1.8c0,1.1,0.7,1.5,2.1,2.1
				c1.7,0.7,2.7,1.5,2.7,3c0,1.8-1.4,3-3.5,3c-1,0-1.9-0.3-2.6-0.7L208.5,260.5z"/>
		</g>
	</g>
</g>
</svg>
